<?xml version="1.0" standalone="no"?><!DOCTYPE svg PUBLIC "-//W3C//DTD SVG 1.1//EN" "http://www.w3.org/Graphics/SVG/1.1/DTD/svg11.dtd"><svg t="1511938902608" class="icon" style="" viewBox="0 0 1024 1024" version="1.1" xmlns="http://www.w3.org/2000/svg" p-id="4422" xmlns:xlink="http://www.w3.org/1999/xlink" width="200" height="200"><defs><style type="text/css"></style></defs><path d="M924.16 147.456c-256 0-390.144-134.656-390.144-134.656-6.144-6.144-19.456-12.8-25.6-12.8s-19.456 6.144-19.456 6.144-134.656 134.656-390.656 134.656c-19.456 0-31.744 12.8-31.744 31.744V665.6c0 210.944 166.4 268.8 320 320 31.744 12.8 70.656 25.6 108.544 38.4h32.256c31.744-12.8 70.656-25.6 108.544-38.4 147.456-51.2 320-108.544 320-320V179.2c0-19.456-12.8-31.744-31.744-31.744z m-246.272 465.408c22.016 0 36.864 14.848 36.864 36.864 0 22.016-22.016 36.864-44.032 36.864h-125.44V768c0 22.016-14.848 36.864-36.864 36.864s-36.864-14.848-36.864-36.864v-81.408H346.112c-22.016 0-36.864-14.848-36.864-36.864 0-22.016 14.848-36.864 36.864-36.864h125.44v-58.88H346.112c-22.016 0-36.864-14.848-36.864-36.864 0-22.016 14.848-36.864 36.864-36.864h125.44v-22.528L331.264 310.784c-14.848-14.848-14.848-36.864 0-51.712 14.848-14.848 36.864-14.848 51.712 0l125.44 125.44 125.44-125.44c14.848-14.848 36.864-14.848 51.712 0 14.848 14.848 14.848 36.864 0 51.712L547.84 448c-0.512 2.56-1.536 4.608-2.56 7.168v25.088h132.608c22.016 0 36.864 14.848 36.864 36.864 0 22.016-22.016 36.864-44.032 36.864h-125.44v58.88h132.608z" p-id="4423" fill="#c7d3e0"></path></svg>