<?xml version="1.0" standalone="no"?><!DOCTYPE svg PUBLIC "-//W3C//DTD SVG 1.1//EN" "http://www.w3.org/Graphics/SVG/1.1/DTD/svg11.dtd"><svg t="1511938812623" class="icon" style="" viewBox="0 0 1024 1024" version="1.1" xmlns="http://www.w3.org/2000/svg" p-id="2400" xmlns:xlink="http://www.w3.org/1999/xlink" width="200" height="200"><defs><style type="text/css"></style></defs><path d="M983.4 581.6c-6 38.8-43.1 70.5-82.3 70.5H416.8c-39.2 0-75.7-31.8-81.1-70.6l-54.3-390c-5.4-38.9 21.8-65 60.4-58.2l622.1 110.4c38.6 6.9 65.3 44.2 59.2 82.9l-39.7 255z m-99.8 113h-591l-78.2-583.4c-2.4-17.7-16.4-30.8-32.1-31-1.8-0.3-3.6-0.4-5.5-0.4H35.4C16 79.8 0 94.1 0 111.7c0 17.5 15.9 31.9 35.4 31.9h119.2l78.2 583.5c2.5 18.5 17.6 32 34.2 31 0.8 0 1.7 0.1 2.5 0.1h614.2c19.5 0 35.4-14.3 35.4-31.7-0.1-17.6-16.1-31.9-35.5-31.9z m-415 174c0 39-31.7 70.6-70.7 70.6-39.1 0-70.7-31.6-70.7-70.6 0-39 31.7-70.6 70.7-70.6 39.1 0 70.7 31.7 70.7 70.6z m383.6 0c0 39-31.7 70.6-70.7 70.6-39.1 0-70.7-31.6-70.7-70.6 0-39 31.7-70.6 70.7-70.6 39.1 0 70.7 31.7 70.7 70.6z" fill="#c7d3e0" p-id="2401"></path></svg>